<svg xmlns="http://www.w3.org/2000/svg" viewBox="0 0 90.37 90.37"><defs><style>.cls-1{fill:#e8404b;}</style></defs><title>logo-360pmi</title><g id="Layer_2" data-name="Layer 2"><g id="Layer_3" data-name="Layer 3"><path class="cls-1" d="M21.52,32.78h.81a7.78,7.78,0,0,0,1.53-.14,4,4,0,0,0,1.33-.5,2.85,2.85,0,0,0,.93-1,3.34,3.34,0,0,0,.09-2.78,2.76,2.76,0,0,0-.72-1,3.56,3.56,0,0,0-2.3-.85,3.26,3.26,0,0,0-2,.61,3.66,3.66,0,0,0-1.25,1.68l-2.31-.82a5.5,5.5,0,0,1,2.19-2.63,6.36,6.36,0,0,1,3.48-1,7.17,7.17,0,0,1,2.19.33,5.5,5.5,0,0,1,1.81,1,4.58,4.58,0,0,1,1.24,1.57A5,5,0,0,1,29,29.51,4.13,4.13,0,0,1,28.74,31a4.27,4.27,0,0,1-.68,1.24,4.47,4.47,0,0,1-2.35,1.52v0a5.15,5.15,0,0,1,1.51.55,4.4,4.4,0,0,1,1.19,1,4.33,4.33,0,0,1,.79,1.35,4.61,4.61,0,0,1,.29,1.65A5.48,5.48,0,0,1,29,40.78a5.36,5.36,0,0,1-1.38,1.77,6.1,6.1,0,0,1-2,1.07A7.59,7.59,0,0,1,23.3,44a7.5,7.5,0,0,1-3.88-1A5.7,5.7,0,0,1,17,39.89l2.36-.78a4,4,0,0,0,3.91,2.73,4.24,4.24,0,0,0,1.37-.23,3.54,3.54,0,0,0,1.2-.67,3.19,3.19,0,0,0,.84-1.1A3.54,3.54,0,0,0,27,38.29a2.93,2.93,0,0,0-.42-1.62,3.38,3.38,0,0,0-1.09-1.07A4.58,4.58,0,0,0,24,35a7.93,7.93,0,0,0-1.66-.17h-.78V32.78Z"/><path class="cls-1" d="M19.68,55h2.75a8.73,8.73,0,0,0,1.75-.17,4.51,4.51,0,0,0,1.38-.53,2.41,2.41,0,0,0,.89-.93A2.92,2.92,0,0,0,26.76,52a2.74,2.74,0,0,0-.33-1.4,2.61,2.61,0,0,0-.89-.92,4.08,4.08,0,0,0-1.35-.5A10,10,0,0,0,22.48,49h-2.8v6Zm-2.6-8.21h5.67a11.65,11.65,0,0,1,2.73.3,5.81,5.81,0,0,1,2.09.93,4.16,4.16,0,0,1,1.34,1.6,5.93,5.93,0,0,1,0,4.72A4.37,4.37,0,0,1,27.46,56a6.37,6.37,0,0,1-2.15.93,11.49,11.49,0,0,1-2.69.3H19.68v8.16h-2.6V46.81Z"/><path class="cls-1" d="M41.18,37.9a4.32,4.32,0,0,0,.27,1.53,3.65,3.65,0,0,0,.79,1.25,3.9,3.9,0,0,0,1.22.84,3.83,3.83,0,0,0,1.57.32,4.05,4.05,0,0,0,1.56-.29,3.53,3.53,0,0,0,1.21-.83,3.9,3.9,0,0,0,.79-1.26,4.5,4.5,0,0,0,.27-1.59,4.26,4.26,0,0,0-.27-1.54,4,4,0,0,0-.76-1.24,3.27,3.27,0,0,0-1.2-.81A4.14,4.14,0,0,0,45.06,34a4.29,4.29,0,0,0-1.59.29,3.47,3.47,0,0,0-1.23.81,3.71,3.71,0,0,0-.79,1.24,4.35,4.35,0,0,0-.27,1.57Zm2.12-5.48,0,0a3.27,3.27,0,0,1,1.05-.37,6.19,6.19,0,0,1,3.53.3,5.61,5.61,0,0,1,1.84,1.21A5.52,5.52,0,0,1,51,35.46a6.21,6.21,0,0,1,.44,2.34A6.48,6.48,0,0,1,51,40.33a5.87,5.87,0,0,1-1.35,2,6.25,6.25,0,0,1-2,1.26A6.94,6.94,0,0,1,45,44a7.16,7.16,0,0,1-2.57-.46,6.05,6.05,0,0,1-2-1.28,5.66,5.66,0,0,1-1.34-1.94,6.14,6.14,0,0,1-.48-2.44,7.32,7.32,0,0,1,.49-2.75,16.12,16.12,0,0,1,1.32-2.52l4.85-7.66h3l-5,7.48Z"/><polygon class="cls-1" points="46.62 61.08 46.67 61.08 52.16 46.8 56.2 46.8 56.2 65.38 53.6 65.38 53.6 49.85 53.55 49.85 47.38 65.38 45.73 65.38 39.59 49.85 39.54 49.85 39.54 65.38 37.02 65.38 37.02 46.8 41.06 46.8 46.62 61.08 46.62 61.08"/><path class="cls-1" d="M66.82,26.59a2.53,2.53,0,0,0-1.89.75,5.09,5.09,0,0,0-1.14,1.89,11.69,11.69,0,0,0-.57,2.48,22.62,22.62,0,0,0-.15,2.52,22.9,22.9,0,0,0,.15,2.52,11.36,11.36,0,0,0,.57,2.46,5.13,5.13,0,0,0,1.14,1.88,2.53,2.53,0,0,0,1.89.75,2.46,2.46,0,0,0,1.85-.75,5.41,5.41,0,0,0,1.14-1.88,10.8,10.8,0,0,0,.58-2.46,22.9,22.9,0,0,0,.15-2.52,22.62,22.62,0,0,0-.15-2.52,11.11,11.11,0,0,0-.58-2.48,5.36,5.36,0,0,0-1.14-1.89,2.46,2.46,0,0,0-1.85-.75Zm0-2.12a5.19,5.19,0,0,1,2.85.76,6,6,0,0,1,2,2.08,10.31,10.31,0,0,1,1.15,3.11,20.34,20.34,0,0,1,0,7.62,10.24,10.24,0,0,1-1.15,3.1,6,6,0,0,1-2,2.08,5.68,5.68,0,0,1-5.71,0,5.82,5.82,0,0,1-2-2.08A10,10,0,0,1,60.84,38a19.8,19.8,0,0,1,0-7.62A10,10,0,0,1,62,27.31a5.91,5.91,0,0,1,2-2.08,5.22,5.22,0,0,1,2.86-.76Z"/><polygon class="cls-1" points="68.36 65.38 65.76 65.38 65.76 46.8 68.36 46.8 68.36 65.38 68.36 65.38"/><path class="cls-1" d="M76.36,18a3.22,3.22,0,1,1,5.07,2.62,3.13,3.13,0,0,1-1.85.59A3.22,3.22,0,0,1,76.36,18Zm7.56,3.95a5.82,5.82,0,1,0-2.2,1.52A42.49,42.49,0,1,1,71.51,11.78l2.07.13-.43-2.22A45.18,45.18,0,0,0,0,45.18,45.18,45.18,0,0,0,77.13,77.13,45.2,45.2,0,0,0,83.92,21.9Z"/></g></g></svg>